<?xml version="1.0" encoding="UTF-8"?>
<svg width="4001px" height="2524px" viewBox="0 0 4001 2524" version="1.1" xmlns="http://www.w3.org/2000/svg" xmlns:xlink="http://www.w3.org/1999/xlink">
    <!-- Generator: Sketch 43.2 (39069) - http://www.bohemiancoding.com/sketch -->
    <title>Group 2</title>
    <desc>Created with Sketch.</desc>
    <defs></defs>
    <g id="Page-1" stroke="none" stroke-width="1" fill="none" fill-rule="evenodd" stroke-linecap="square">
        <g id="Group-2" stroke="#F0F0F0">
            <path d="M1998.66164,-1959.15995 L2002.34005,2040.83836" id="Line" transform="translate(2000.500846, 40.839209) rotate(-270.000000) translate(-2000.500846, -40.839209) "></path>
            <path d="M1998.66164,-1919.15995 L2002.34005,2080.83836" id="Line" transform="translate(2000.500846, 80.839209) rotate(-270.000000) translate(-2000.500846, -80.839209) "></path>
            <path d="M1998.66164,-1879.15995 L2002.34005,2120.83836" id="Line" transform="translate(2000.500846, 120.839209) rotate(-270.000000) translate(-2000.500846, -120.839209) "></path>
            <path d="M1998.66164,-1839.15995 L2002.34005,2160.83836" id="Line" transform="translate(2000.500846, 160.839209) rotate(-270.000000) translate(-2000.500846, -160.839209) "></path>
            <path d="M1998.66164,-1799.15995 L2002.34005,2200.83836" id="Line" transform="translate(2000.500846, 200.839209) rotate(-270.000000) translate(-2000.500846, -200.839209) "></path>
            <path d="M1998.66164,-1759.15995 L2002.34005,2240.83836" id="Line" transform="translate(2000.500846, 240.839209) rotate(-270.000000) translate(-2000.500846, -240.839209) "></path>
            <path d="M1998.66164,-1719.15995 L2002.34005,2280.83836" id="Line" transform="translate(2000.500846, 280.839209) rotate(-270.000000) translate(-2000.500846, -280.839209) "></path>
            <path d="M1998.66164,-1679.15995 L2002.34005,2320.83836" id="Line" transform="translate(2000.500846, 320.839209) rotate(-270.000000) translate(-2000.500846, -320.839209) "></path>
            <path d="M1998.66164,-1639.15995 L2002.34005,2360.83836" id="Line" transform="translate(2000.500846, 360.839209) rotate(-270.000000) translate(-2000.500846, -360.839209) "></path>
            <path d="M1998.66164,-1599.15995 L2002.34005,2400.83836" id="Line" transform="translate(2000.500846, 400.839209) rotate(-270.000000) translate(-2000.500846, -400.839209) "></path>
            <path d="M1998.66164,-1559.15995 L2002.34005,2440.83836" id="Line" transform="translate(2000.500846, 440.839209) rotate(-270.000000) translate(-2000.500846, -440.839209) "></path>
            <path d="M1998.66164,-1519.15995 L2002.34005,2480.83836" id="Line" transform="translate(2000.500846, 480.839209) rotate(-270.000000) translate(-2000.500846, -480.839209) "></path>
            <path d="M1998.66164,-1479.15995 L2002.34005,2520.83836" id="Line" transform="translate(2000.500846, 520.839209) rotate(-270.000000) translate(-2000.500846, -520.839209) "></path>
            <path d="M1998.66164,-1439.15995 L2002.34005,2560.83836" id="Line" transform="translate(2000.500846, 560.839209) rotate(-270.000000) translate(-2000.500846, -560.839209) "></path>
            <path d="M1998.66164,-1399.15995 L2002.34005,2600.83836" id="Line" transform="translate(2000.500846, 600.839209) rotate(-270.000000) translate(-2000.500846, -600.839209) "></path>
            <path d="M1998.66164,-1359.15995 L2002.34005,2640.83836" id="Line" transform="translate(2000.500846, 640.839209) rotate(-270.000000) translate(-2000.500846, -640.839209) "></path>
            <path d="M1998.66164,-1319.15995 L2002.34005,2680.83836" id="Line" transform="translate(2000.500846, 680.839209) rotate(-270.000000) translate(-2000.500846, -680.839209) "></path>
            <path d="M1998.66164,-1279.15995 L2002.34005,2720.83836" id="Line" transform="translate(2000.500846, 720.839209) rotate(-270.000000) translate(-2000.500846, -720.839209) "></path>
            <path d="M1998.66164,-1239.15995 L2002.34005,2760.83836" id="Line" transform="translate(2000.500846, 760.839209) rotate(-270.000000) translate(-2000.500846, -760.839209) "></path>
            <path d="M1998.66164,-1199.15995 L2002.34005,2800.83836" id="Line" transform="translate(2000.500846, 800.839209) rotate(-270.000000) translate(-2000.500846, -800.839209) "></path>
            <path d="M1998.66164,-1159.15995 L2002.34005,2840.83836" id="Line" transform="translate(2000.500846, 840.839209) rotate(-270.000000) translate(-2000.500846, -840.839209) "></path>
            <path d="M1998.66164,-1119.15995 L2002.34005,2880.83836" id="Line" transform="translate(2000.500846, 880.839209) rotate(-270.000000) translate(-2000.500846, -880.839209) "></path>
            <path d="M1998.66164,-1079.15995 L2002.34005,2920.83836" id="Line" transform="translate(2000.500846, 920.839209) rotate(-270.000000) translate(-2000.500846, -920.839209) "></path>
            <path d="M1998.66164,-1039.15995 L2002.34005,2960.83836" id="Line" transform="translate(2000.500846, 960.839209) rotate(-270.000000) translate(-2000.500846, -960.839209) "></path>
            <path d="M1998.66164,-999.159945 L2002.34005,3000.83836" id="Line" transform="translate(2000.500846, 1000.839209) rotate(-270.000000) translate(-2000.500846, -1000.839209) "></path>
            <path d="M1998.66164,-959.159945 L2002.34005,3040.83836" id="Line" transform="translate(2000.500846, 1040.839209) rotate(-270.000000) translate(-2000.500846, -1040.839209) "></path>
            <path d="M1998.66164,-919.159945 L2002.34005,3080.83836" id="Line" transform="translate(2000.500846, 1080.839209) rotate(-270.000000) translate(-2000.500846, -1080.839209) "></path>
            <path d="M1998.66164,-879.159945 L2002.34005,3120.83836" id="Line" transform="translate(2000.500846, 1120.839209) rotate(-270.000000) translate(-2000.500846, -1120.839209) "></path>
            <path d="M1998.66164,-839.159945 L2002.34005,3160.83836" id="Line" transform="translate(2000.500846, 1160.839209) rotate(-270.000000) translate(-2000.500846, -1160.839209) "></path>
            <path d="M1998.66164,-799.159945 L2002.34005,3200.83836" id="Line" transform="translate(2000.500846, 1200.839209) rotate(-270.000000) translate(-2000.500846, -1200.839209) "></path>
            <path d="M1998.66164,-759.159945 L2002.34005,3240.83836" id="Line" transform="translate(2000.500846, 1240.839209) rotate(-270.000000) translate(-2000.500846, -1240.839209) "></path>
            <path d="M1998.66164,-719.159945 L2002.34005,3280.83836" id="Line" transform="translate(2000.500846, 1280.839209) rotate(-270.000000) translate(-2000.500846, -1280.839209) "></path>
            <path d="M1998.66164,-679.159945 L2002.34005,3320.83836" id="Line" transform="translate(2000.500846, 1320.839209) rotate(-270.000000) translate(-2000.500846, -1320.839209) "></path>
            <path d="M1998.66164,-639.159945 L2002.34005,3360.83836" id="Line" transform="translate(2000.500846, 1360.839209) rotate(-270.000000) translate(-2000.500846, -1360.839209) "></path>
            <path d="M1998.66164,-599.159945 L2002.34005,3400.83836" id="Line" transform="translate(2000.500846, 1400.839209) rotate(-270.000000) translate(-2000.500846, -1400.839209) "></path>
            <path d="M1998.66164,-559.159945 L2002.34005,3440.83836" id="Line" transform="translate(2000.500846, 1440.839209) rotate(-270.000000) translate(-2000.500846, -1440.839209) "></path>
            <path d="M1998.66164,-519.159945 L2002.34005,3480.83836" id="Line" transform="translate(2000.500846, 1480.839209) rotate(-270.000000) translate(-2000.500846, -1480.839209) "></path>
            <path d="M1998.66164,-479.159945 L2002.34005,3520.83836" id="Line" transform="translate(2000.500846, 1520.839209) rotate(-270.000000) translate(-2000.500846, -1520.839209) "></path>
            <path d="M1998.66164,-439.159945 L2002.34005,3560.83836" id="Line" transform="translate(2000.500846, 1560.839209) rotate(-270.000000) translate(-2000.500846, -1560.839209) "></path>
            <path d="M1998.66164,-399.159945 L2002.34005,3600.83836" id="Line" transform="translate(2000.500846, 1600.839209) rotate(-270.000000) translate(-2000.500846, -1600.839209) "></path>
            <path d="M1998.66164,-359.159945 L2002.34005,3640.83836" id="Line" transform="translate(2000.500846, 1640.839209) rotate(-270.000000) translate(-2000.500846, -1640.839209) "></path>
            <path d="M1998.66164,-319.159945 L2002.34005,3680.83836" id="Line" transform="translate(2000.500846, 1680.839209) rotate(-270.000000) translate(-2000.500846, -1680.839209) "></path>
            <path d="M1998.66164,-279.159945 L2002.34005,3720.83836" id="Line" transform="translate(2000.500846, 1720.839209) rotate(-270.000000) translate(-2000.500846, -1720.839209) "></path>
            <path d="M1998.66164,-239.159945 L2002.34005,3760.83836" id="Line" transform="translate(2000.500846, 1760.839209) rotate(-270.000000) translate(-2000.500846, -1760.839209) "></path>
            <path d="M1998.66164,-199.159945 L2002.34005,3800.83836" id="Line" transform="translate(2000.500846, 1800.839209) rotate(-270.000000) translate(-2000.500846, -1800.839209) "></path>
            <path d="M1998.66164,-159.159945 L2002.34005,3840.83836" id="Line" transform="translate(2000.500846, 1840.839209) rotate(-270.000000) translate(-2000.500846, -1840.839209) "></path>
            <path d="M1998.66164,-119.159945 L2002.34005,3880.83836" id="Line" transform="translate(2000.500846, 1880.839209) rotate(-270.000000) translate(-2000.500846, -1880.839209) "></path>
            <path d="M1998.66164,-79.1599452 L2002.34005,3920.83836" id="Line" transform="translate(2000.500846, 1920.839209) rotate(-270.000000) translate(-2000.500846, -1920.839209) "></path>
            <path d="M1998.66164,-39.1599452 L2002.34005,3960.83836" id="Line" transform="translate(2000.500846, 1960.839209) rotate(-270.000000) translate(-2000.500846, -1960.839209) "></path>
            <path d="M1998.66164,0.840054804 L2002.34005,4000.83836" id="Line" transform="translate(2000.500846, 2000.839209) rotate(-270.000000) translate(-2000.500846, -2000.839209) "></path>
            <path d="M1998.66164,40.8400548 L2002.34005,4040.83836" id="Line" transform="translate(2000.500846, 2040.839209) rotate(-270.000000) translate(-2000.500846, -2040.839209) "></path>
            <path d="M1998.66164,80.8400548 L2002.34005,4080.83836" id="Line" transform="translate(2000.500846, 2080.839209) rotate(-270.000000) translate(-2000.500846, -2080.839209) "></path>
            <path d="M1998.66164,120.840055 L2002.34005,4120.83836" id="Line" transform="translate(2000.500846, 2120.839209) rotate(-270.000000) translate(-2000.500846, -2120.839209) "></path>
            <path d="M1998.66164,160.840055 L2002.34005,4160.83836" id="Line" transform="translate(2000.500846, 2160.839209) rotate(-270.000000) translate(-2000.500846, -2160.839209) "></path>
            <path d="M1998.66164,200.840055 L2002.34005,4200.83836" id="Line" transform="translate(2000.500846, 2200.839209) rotate(-270.000000) translate(-2000.500846, -2200.839209) "></path>
            <path d="M1998.66164,240.840055 L2002.34005,4240.83836" id="Line" transform="translate(2000.500846, 2240.839209) rotate(-270.000000) translate(-2000.500846, -2240.839209) "></path>
            <path d="M1998.66164,280.840055 L2002.34005,4280.83836" id="Line" transform="translate(2000.500846, 2280.839209) rotate(-270.000000) translate(-2000.500846, -2280.839209) "></path>
            <path d="M1998.66164,320.840055 L2002.34005,4320.83836" id="Line" transform="translate(2000.500846, 2320.839209) rotate(-270.000000) translate(-2000.500846, -2320.839209) "></path>
            <path d="M1998.66164,360.840055 L2002.34005,4360.83836" id="Line" transform="translate(2000.500846, 2360.839209) rotate(-270.000000) translate(-2000.500846, -2360.839209) "></path>
            <path d="M1998.66164,400.840055 L2002.34005,4400.83836" id="Line" transform="translate(2000.500846, 2400.839209) rotate(-270.000000) translate(-2000.500846, -2400.839209) "></path>
            <path d="M1998.66164,440.840055 L2002.34005,4440.83836" id="Line" transform="translate(2000.500846, 2440.839209) rotate(-270.000000) translate(-2000.500846, -2440.839209) "></path>
            <path d="M1998.66164,480.840055 L2002.34005,4480.83836" id="Line" transform="translate(2000.500846, 2480.839209) rotate(-270.000000) translate(-2000.500846, -2480.839209) "></path>
            <path d="M1998.66164,520.840055 L2002.34005,4520.83836" id="Line" transform="translate(2000.500846, 2520.839209) rotate(-270.000000) translate(-2000.500846, -2520.839209) "></path>
            <path d="M3958.5,0.5 L3960.5,2517.5" id="Line" transform="translate(3959.500000, 1259.000000) rotate(-540.000000) translate(-3959.500000, -1259.000000) "></path>
            <path d="M3918.5,0.5 L3920.5,2517.5" id="Line" transform="translate(3919.500000, 1259.000000) rotate(-540.000000) translate(-3919.500000, -1259.000000) "></path>
            <path d="M3878.5,0.5 L3880.5,2517.5" id="Line" transform="translate(3879.500000, 1259.000000) rotate(-540.000000) translate(-3879.500000, -1259.000000) "></path>
            <path d="M3838.5,0.5 L3840.5,2517.5" id="Line" transform="translate(3839.500000, 1259.000000) rotate(-540.000000) translate(-3839.500000, -1259.000000) "></path>
            <path d="M3798.5,0.5 L3800.5,2517.5" id="Line" transform="translate(3799.500000, 1259.000000) rotate(-540.000000) translate(-3799.500000, -1259.000000) "></path>
            <path d="M3758.5,0.5 L3760.5,2517.5" id="Line" transform="translate(3759.500000, 1259.000000) rotate(-540.000000) translate(-3759.500000, -1259.000000) "></path>
            <path d="M3718.5,0.5 L3720.5,2517.5" id="Line" transform="translate(3719.500000, 1259.000000) rotate(-540.000000) translate(-3719.500000, -1259.000000) "></path>
            <path d="M3678.5,0.5 L3680.5,2517.5" id="Line" transform="translate(3679.500000, 1259.000000) rotate(-540.000000) translate(-3679.500000, -1259.000000) "></path>
            <path d="M3638.5,0.5 L3640.5,2517.5" id="Line" transform="translate(3639.500000, 1259.000000) rotate(-540.000000) translate(-3639.500000, -1259.000000) "></path>
            <path d="M3598.5,0.5 L3600.5,2517.5" id="Line" transform="translate(3599.500000, 1259.000000) rotate(-540.000000) translate(-3599.500000, -1259.000000) "></path>
            <path d="M3558.5,0.5 L3560.5,2517.5" id="Line" transform="translate(3559.500000, 1259.000000) rotate(-540.000000) translate(-3559.500000, -1259.000000) "></path>
            <path d="M3518.5,0.5 L3520.5,2517.5" id="Line" transform="translate(3519.500000, 1259.000000) rotate(-540.000000) translate(-3519.500000, -1259.000000) "></path>
            <path d="M3478.5,0.5 L3480.5,2517.5" id="Line" transform="translate(3479.500000, 1259.000000) rotate(-540.000000) translate(-3479.500000, -1259.000000) "></path>
            <path d="M3438.5,0.5 L3440.5,2517.5" id="Line" transform="translate(3439.500000, 1259.000000) rotate(-540.000000) translate(-3439.500000, -1259.000000) "></path>
            <path d="M3398.5,0.5 L3400.5,2517.5" id="Line" transform="translate(3399.500000, 1259.000000) rotate(-540.000000) translate(-3399.500000, -1259.000000) "></path>
            <path d="M3358.5,0.5 L3360.5,2517.5" id="Line" transform="translate(3359.500000, 1259.000000) rotate(-540.000000) translate(-3359.500000, -1259.000000) "></path>
            <path d="M3318.5,0.5 L3320.5,2517.5" id="Line" transform="translate(3319.500000, 1259.000000) rotate(-540.000000) translate(-3319.500000, -1259.000000) "></path>
            <path d="M3278.5,0.5 L3280.5,2517.5" id="Line" transform="translate(3279.500000, 1259.000000) rotate(-540.000000) translate(-3279.500000, -1259.000000) "></path>
            <path d="M3238.5,0.5 L3240.5,2517.5" id="Line" transform="translate(3239.500000, 1259.000000) rotate(-540.000000) translate(-3239.500000, -1259.000000) "></path>
            <path d="M3198.5,0.5 L3200.5,2517.5" id="Line" transform="translate(3199.500000, 1259.000000) rotate(-540.000000) translate(-3199.500000, -1259.000000) "></path>
            <path d="M3158.5,0.5 L3160.5,2517.5" id="Line" transform="translate(3159.500000, 1259.000000) rotate(-540.000000) translate(-3159.500000, -1259.000000) "></path>
            <path d="M3118.5,0.5 L3120.5,2517.5" id="Line" transform="translate(3119.500000, 1259.000000) rotate(-540.000000) translate(-3119.500000, -1259.000000) "></path>
            <path d="M3078.5,0.5 L3080.5,2517.5" id="Line" transform="translate(3079.500000, 1259.000000) rotate(-540.000000) translate(-3079.500000, -1259.000000) "></path>
            <path d="M3038.5,0.5 L3040.5,2517.5" id="Line" transform="translate(3039.500000, 1259.000000) rotate(-540.000000) translate(-3039.500000, -1259.000000) "></path>
            <path d="M2998.5,0.5 L3000.5,2517.5" id="Line" transform="translate(2999.500000, 1259.000000) rotate(-540.000000) translate(-2999.500000, -1259.000000) "></path>
            <path d="M2958.5,0.5 L2960.5,2517.5" id="Line" transform="translate(2959.500000, 1259.000000) rotate(-540.000000) translate(-2959.500000, -1259.000000) "></path>
            <path d="M2918.5,0.5 L2920.5,2517.5" id="Line" transform="translate(2919.500000, 1259.000000) rotate(-540.000000) translate(-2919.500000, -1259.000000) "></path>
            <path d="M2878.5,0.5 L2880.5,2517.5" id="Line" transform="translate(2879.500000, 1259.000000) rotate(-540.000000) translate(-2879.500000, -1259.000000) "></path>
            <path d="M2838.5,0.5 L2840.5,2517.5" id="Line" transform="translate(2839.500000, 1259.000000) rotate(-540.000000) translate(-2839.500000, -1259.000000) "></path>
            <path d="M2798.5,0.5 L2800.5,2517.5" id="Line" transform="translate(2799.500000, 1259.000000) rotate(-540.000000) translate(-2799.500000, -1259.000000) "></path>
            <path d="M2758.5,0.5 L2760.5,2517.5" id="Line" transform="translate(2759.500000, 1259.000000) rotate(-540.000000) translate(-2759.500000, -1259.000000) "></path>
            <path d="M2718.5,0.5 L2720.5,2517.5" id="Line" transform="translate(2719.500000, 1259.000000) rotate(-540.000000) translate(-2719.500000, -1259.000000) "></path>
            <path d="M2678.5,0.5 L2680.5,2517.5" id="Line" transform="translate(2679.500000, 1259.000000) rotate(-540.000000) translate(-2679.500000, -1259.000000) "></path>
            <path d="M2638.5,0.5 L2640.5,2517.5" id="Line" transform="translate(2639.500000, 1259.000000) rotate(-540.000000) translate(-2639.500000, -1259.000000) "></path>
            <path d="M2598.5,0.5 L2600.5,2517.5" id="Line" transform="translate(2599.500000, 1259.000000) rotate(-540.000000) translate(-2599.500000, -1259.000000) "></path>
            <path d="M2558.5,0.5 L2560.5,2517.5" id="Line" transform="translate(2559.500000, 1259.000000) rotate(-540.000000) translate(-2559.500000, -1259.000000) "></path>
            <path d="M2518.5,0.5 L2520.5,2517.5" id="Line" transform="translate(2519.500000, 1259.000000) rotate(-540.000000) translate(-2519.500000, -1259.000000) "></path>
            <path d="M2478.5,0.5 L2480.5,2517.5" id="Line" transform="translate(2479.500000, 1259.000000) rotate(-540.000000) translate(-2479.500000, -1259.000000) "></path>
            <path d="M2438.5,0.5 L2440.5,2517.5" id="Line" transform="translate(2439.500000, 1259.000000) rotate(-540.000000) translate(-2439.500000, -1259.000000) "></path>
            <path d="M2398.5,0.5 L2400.5,2517.5" id="Line" transform="translate(2399.500000, 1259.000000) rotate(-540.000000) translate(-2399.500000, -1259.000000) "></path>
            <path d="M2358.5,0.5 L2360.5,2517.5" id="Line" transform="translate(2359.500000, 1259.000000) rotate(-540.000000) translate(-2359.500000, -1259.000000) "></path>
            <path d="M2318.5,0.5 L2320.5,2517.5" id="Line" transform="translate(2319.500000, 1259.000000) rotate(-540.000000) translate(-2319.500000, -1259.000000) "></path>
            <path d="M2278.5,0.5 L2280.5,2517.5" id="Line" transform="translate(2279.500000, 1259.000000) rotate(-540.000000) translate(-2279.500000, -1259.000000) "></path>
            <path d="M2238.5,0.5 L2240.5,2517.5" id="Line" transform="translate(2239.500000, 1259.000000) rotate(-540.000000) translate(-2239.500000, -1259.000000) "></path>
            <path d="M2198.5,0.5 L2200.5,2517.5" id="Line" transform="translate(2199.500000, 1259.000000) rotate(-540.000000) translate(-2199.500000, -1259.000000) "></path>
            <path d="M2158.5,0.5 L2160.5,2517.5" id="Line" transform="translate(2159.500000, 1259.000000) rotate(-540.000000) translate(-2159.500000, -1259.000000) "></path>
            <path d="M2118.5,0.5 L2120.5,2517.5" id="Line" transform="translate(2119.500000, 1259.000000) rotate(-540.000000) translate(-2119.500000, -1259.000000) "></path>
            <path d="M2078.5,0.5 L2080.5,2517.5" id="Line" transform="translate(2079.500000, 1259.000000) rotate(-540.000000) translate(-2079.500000, -1259.000000) "></path>
            <path d="M2038.5,0.5 L2040.5,2517.5" id="Line" transform="translate(2039.500000, 1259.000000) rotate(-540.000000) translate(-2039.500000, -1259.000000) "></path>
            <path d="M1998.5,0.5 L2000.5,2517.5" id="Line" transform="translate(1999.500000, 1259.000000) rotate(-540.000000) translate(-1999.500000, -1259.000000) "></path>
            <path d="M1958.5,0.5 L1960.5,2517.5" id="Line" transform="translate(1959.500000, 1259.000000) rotate(-540.000000) translate(-1959.500000, -1259.000000) "></path>
            <path d="M1918.5,0.5 L1920.5,2517.5" id="Line" transform="translate(1919.500000, 1259.000000) rotate(-540.000000) translate(-1919.500000, -1259.000000) "></path>
            <path d="M1878.5,0.5 L1880.5,2517.5" id="Line" transform="translate(1879.500000, 1259.000000) rotate(-540.000000) translate(-1879.500000, -1259.000000) "></path>
            <path d="M1838.5,0.5 L1840.5,2517.5" id="Line" transform="translate(1839.500000, 1259.000000) rotate(-540.000000) translate(-1839.500000, -1259.000000) "></path>
            <path d="M1798.5,0.5 L1800.5,2517.5" id="Line" transform="translate(1799.500000, 1259.000000) rotate(-540.000000) translate(-1799.500000, -1259.000000) "></path>
            <path d="M1758.5,0.5 L1760.5,2517.5" id="Line" transform="translate(1759.500000, 1259.000000) rotate(-540.000000) translate(-1759.500000, -1259.000000) "></path>
            <path d="M1718.5,0.5 L1720.5,2517.5" id="Line" transform="translate(1719.500000, 1259.000000) rotate(-540.000000) translate(-1719.500000, -1259.000000) "></path>
            <path d="M1678.5,0.5 L1680.5,2517.5" id="Line" transform="translate(1679.500000, 1259.000000) rotate(-540.000000) translate(-1679.500000, -1259.000000) "></path>
            <path d="M1638.5,0.5 L1640.5,2517.5" id="Line" transform="translate(1639.500000, 1259.000000) rotate(-540.000000) translate(-1639.500000, -1259.000000) "></path>
            <path d="M1598.5,0.5 L1600.5,2517.5" id="Line" transform="translate(1599.500000, 1259.000000) rotate(-540.000000) translate(-1599.500000, -1259.000000) "></path>
            <path d="M1558.5,0.5 L1560.5,2517.5" id="Line" transform="translate(1559.500000, 1259.000000) rotate(-540.000000) translate(-1559.500000, -1259.000000) "></path>
            <path d="M1518.5,0.5 L1520.5,2517.5" id="Line" transform="translate(1519.500000, 1259.000000) rotate(-540.000000) translate(-1519.500000, -1259.000000) "></path>
            <path d="M1478.5,0.5 L1480.5,2517.5" id="Line" transform="translate(1479.500000, 1259.000000) rotate(-540.000000) translate(-1479.500000, -1259.000000) "></path>
            <path d="M1438.5,0.5 L1440.5,2517.5" id="Line" transform="translate(1439.500000, 1259.000000) rotate(-540.000000) translate(-1439.500000, -1259.000000) "></path>
            <path d="M1398.5,0.5 L1400.5,2517.5" id="Line" transform="translate(1399.500000, 1259.000000) rotate(-540.000000) translate(-1399.500000, -1259.000000) "></path>
            <path d="M1358.5,0.5 L1360.5,2517.5" id="Line" transform="translate(1359.500000, 1259.000000) rotate(-540.000000) translate(-1359.500000, -1259.000000) "></path>
            <path d="M1318.5,0.5 L1320.5,2517.5" id="Line" transform="translate(1319.500000, 1259.000000) rotate(-540.000000) translate(-1319.500000, -1259.000000) "></path>
            <path d="M1278.5,0.5 L1280.5,2517.5" id="Line" transform="translate(1279.500000, 1259.000000) rotate(-540.000000) translate(-1279.500000, -1259.000000) "></path>
            <path d="M1238.5,0.5 L1240.5,2517.5" id="Line" transform="translate(1239.500000, 1259.000000) rotate(-540.000000) translate(-1239.500000, -1259.000000) "></path>
            <path d="M1198.5,0.5 L1200.5,2517.5" id="Line" transform="translate(1199.500000, 1259.000000) rotate(-540.000000) translate(-1199.500000, -1259.000000) "></path>
            <path d="M1158.5,0.5 L1160.5,2517.5" id="Line" transform="translate(1159.500000, 1259.000000) rotate(-540.000000) translate(-1159.500000, -1259.000000) "></path>
            <path d="M1118.5,0.5 L1120.5,2517.5" id="Line" transform="translate(1119.500000, 1259.000000) rotate(-540.000000) translate(-1119.500000, -1259.000000) "></path>
            <path d="M1078.5,0.5 L1080.5,2517.5" id="Line" transform="translate(1079.500000, 1259.000000) rotate(-540.000000) translate(-1079.500000, -1259.000000) "></path>
            <path d="M1038.5,0.5 L1040.5,2517.5" id="Line" transform="translate(1039.500000, 1259.000000) rotate(-540.000000) translate(-1039.500000, -1259.000000) "></path>
            <path d="M998.5,0.5 L1000.5,2517.5" id="Line" transform="translate(999.500000, 1259.000000) rotate(-540.000000) translate(-999.500000, -1259.000000) "></path>
            <path d="M958.5,0.5 L960.5,2517.5" id="Line" transform="translate(959.500000, 1259.000000) rotate(-540.000000) translate(-959.500000, -1259.000000) "></path>
            <path d="M918.5,0.5 L920.5,2517.5" id="Line" transform="translate(919.500000, 1259.000000) rotate(-540.000000) translate(-919.500000, -1259.000000) "></path>
            <path d="M878.5,0.5 L880.5,2517.5" id="Line" transform="translate(879.500000, 1259.000000) rotate(-540.000000) translate(-879.500000, -1259.000000) "></path>
            <path d="M838.5,0.5 L840.5,2517.5" id="Line" transform="translate(839.500000, 1259.000000) rotate(-540.000000) translate(-839.500000, -1259.000000) "></path>
            <path d="M798.5,0.5 L800.5,2517.5" id="Line" transform="translate(799.500000, 1259.000000) rotate(-540.000000) translate(-799.500000, -1259.000000) "></path>
            <path d="M758.5,0.5 L760.5,2517.5" id="Line" transform="translate(759.500000, 1259.000000) rotate(-540.000000) translate(-759.500000, -1259.000000) "></path>
            <path d="M708.5,0.5 L710.5,2517.5" id="Line" transform="translate(709.500000, 1259.000000) rotate(-540.000000) translate(-709.500000, -1259.000000) "></path>
            <path d="M668.5,0.5 L670.5,2517.5" id="Line" transform="translate(669.500000, 1259.000000) rotate(-540.000000) translate(-669.500000, -1259.000000) "></path>
            <path d="M628.5,0.5 L630.5,2517.5" id="Line" transform="translate(629.500000, 1259.000000) rotate(-540.000000) translate(-629.500000, -1259.000000) "></path>
            <path d="M588.5,0.5 L590.5,2517.5" id="Line" transform="translate(589.500000, 1259.000000) rotate(-540.000000) translate(-589.500000, -1259.000000) "></path>
            <path d="M548.5,0.5 L550.5,2517.5" id="Line" transform="translate(549.500000, 1259.000000) rotate(-540.000000) translate(-549.500000, -1259.000000) "></path>
            <path d="M508.5,0.5 L510.5,2517.5" id="Line" transform="translate(509.500000, 1259.000000) rotate(-540.000000) translate(-509.500000, -1259.000000) "></path>
            <path d="M468.5,0.5 L470.5,2517.5" id="Line" transform="translate(469.500000, 1259.000000) rotate(-540.000000) translate(-469.500000, -1259.000000) "></path>
            <path d="M428.5,0.5 L430.5,2517.5" id="Line" transform="translate(429.500000, 1259.000000) rotate(-540.000000) translate(-429.500000, -1259.000000) "></path>
            <path d="M388.5,0.5 L390.5,2517.5" id="Line" transform="translate(389.500000, 1259.000000) rotate(-540.000000) translate(-389.500000, -1259.000000) "></path>
            <path d="M348.5,0.5 L350.5,2517.5" id="Line" transform="translate(349.500000, 1259.000000) rotate(-540.000000) translate(-349.500000, -1259.000000) "></path>
            <path d="M308.5,0.5 L310.5,2517.5" id="Line" transform="translate(309.500000, 1259.000000) rotate(-540.000000) translate(-309.500000, -1259.000000) "></path>
            <path d="M268.5,0.5 L270.5,2517.5" id="Line" transform="translate(269.500000, 1259.000000) rotate(-540.000000) translate(-269.500000, -1259.000000) "></path>
            <path d="M228.5,0.5 L230.5,2517.5" id="Line" transform="translate(229.500000, 1259.000000) rotate(-540.000000) translate(-229.500000, -1259.000000) "></path>
            <path d="M188.5,0.5 L190.5,2517.5" id="Line" transform="translate(189.500000, 1259.000000) rotate(-540.000000) translate(-189.500000, -1259.000000) "></path>
            <path d="M148.5,0.5 L150.5,2517.5" id="Line" transform="translate(149.500000, 1259.000000) rotate(-540.000000) translate(-149.500000, -1259.000000) "></path>
            <path d="M108.5,0.5 L110.5,2517.5" id="Line" transform="translate(109.500000, 1259.000000) rotate(-540.000000) translate(-109.500000, -1259.000000) "></path>
            <path d="M68.5,0.5 L70.5,2517.5" id="Line" transform="translate(69.500000, 1259.000000) rotate(-540.000000) translate(-69.500000, -1259.000000) "></path>
            <path d="M28.5,0.5 L30.5,2517.5" id="Line" transform="translate(29.500000, 1259.000000) rotate(-540.000000) translate(-29.500000, -1259.000000) "></path>
        </g>
    </g>
</svg>